<svg width="32" height="32" viewBox="0 0 32 32" fill="none" xmlns="http://www.w3.org/2000/svg">
<path d="M14.6255 19.4406C14.5197 19.5469 14.5197 19.719 14.6258 19.8253C14.6788 19.8784 14.7483 19.9051 14.818 19.9051C14.8878 19.9051 14.9575 19.8786 15.0108 19.8253L16.3099 18.5262H19.1701L23.2534 14.441L23.26 14.2659L23.4393 14.2564L24.7288 12.9665C25.6235 12.0728 25.6235 10.6168 24.7288 9.7208C24.2955 9.28792 23.7192 9.04898 23.1064 9.04898C22.494 9.04898 21.9172 9.2874 21.4829 9.72099L18.0994 13.1067L18.107 13.2493L17.9688 13.2353L15.9238 15.2801V18.1416L14.6255 19.4406ZM18.9442 17.9819H16.8532L17.6402 17.1949L19.7243 17.2015L18.9442 17.9819ZM19.7795 14.2856L19.7729 12.201L21.1793 10.7943L21.186 12.8791L19.7795 14.2856ZM20.1493 14.6855L22.2329 14.6919L20.2664 16.6594L18.1823 16.6528L20.1493 14.6855ZM23.2011 13.7243L22.7346 13.7496L22.7196 14.1493L20.6914 14.1429L22.0171 12.8173L24.1009 12.8239L23.2011 13.7243ZM24.581 12.2818L22.5593 12.2751L24.5167 10.3175C24.9397 10.8996 24.9633 11.6809 24.581 12.2817L24.581 12.2818ZM23.1058 9.59318C23.4807 9.59318 23.8351 9.71546 24.1324 9.93226L21.7276 12.3373L21.721 10.252L21.8673 10.1056C22.198 9.77537 22.6381 9.59319 23.1058 9.59319L23.1058 9.59318ZM18.1701 13.8032L18.6847 13.8562L18.655 13.3192L19.2308 12.7432L19.2374 14.8273L17.7961 16.2688L17.7895 14.183L18.1701 13.8032ZM16.4675 15.5054L17.2476 14.7254L17.2542 16.8112L16.4672 17.5982L16.4675 15.5054ZM6.59961 15.4779C6.59961 15.3279 6.72115 15.2059 6.87166 15.2059H14.9551C15.1056 15.2059 15.2271 15.3279 15.2271 15.4779C15.2271 15.6285 15.1056 15.7502 14.9551 15.7502H6.87166C6.72139 15.75 6.59961 15.628 6.59961 15.4779V15.4779ZM6.59961 16.6793C6.59961 16.5293 6.72115 16.4073 6.87166 16.4073H14.9551C15.1056 16.4073 15.2271 16.5293 15.2271 16.6793C15.2271 16.8298 15.1056 16.9516 14.9551 16.9516H6.87166C6.72139 16.9511 6.59961 16.8294 6.59961 16.6793V16.6793ZM6.59961 17.8822C6.59961 17.7317 6.72115 17.6099 6.87166 17.6099H14.9551C15.1056 17.6099 15.2271 17.732 15.2271 17.8822C15.2271 18.0323 15.1056 18.1543 14.9551 18.1543L6.87166 18.154C6.72139 18.154 6.59961 18.0323 6.59961 17.8822V17.8822ZM6.59961 19.0834C6.59961 18.9333 6.72115 18.8113 6.87166 18.8113H13.3887C13.5392 18.8113 13.6607 18.9333 13.6607 19.0834C13.6607 19.2339 13.5392 19.3557 13.3887 19.3557H6.87166C6.72139 19.3557 6.59961 19.2339 6.59961 19.0834ZM30.0528 23.954V6.38361C30.0528 5.61952 29.4331 5 28.6692 5H3.33092C2.56683 5 1.94756 5.61973 1.94756 6.38361V23.954H0C0 25.3253 1.11225 26.1877 2.48285 26.1877H29.5164C30.8872 26.1877 32 25.3253 32 23.954H30.0528ZM17.8925 24.804H14.1088C13.6394 24.804 13.259 24.4235 13.259 23.9542H18.7423C18.7418 24.4234 18.3619 24.804 17.8924 24.804H17.8925ZM28.3236 22.306H3.67739V6.6483H28.3236V22.306Z" fill="#BBBBBB"/>
</svg>
