<svg width="32" height="32" viewBox="0 0 32 32" fill="none" xmlns="http://www.w3.org/2000/svg">
<path d="M30.1317 6.29099H11.7462L9.93258 3.14968C9.60421 2.58096 9.09223 2.20406 8.45187 2.05951C7.8113 1.91475 7.18696 2.03535 6.64629 2.40752L2.58609 5.20252C2.44909 5.29702 2.3492 5.43575 2.30389 5.59584C1.80896 7.34017 1.91899 9.55916 2.63097 12.1911C3.26724 14.5434 4.36149 17.0985 5.79448 19.5805C8.24539 23.8256 12.2737 28.717 16.2289 29.7145C16.2863 29.7289 16.3449 29.736 16.4034 29.736C16.5087 29.736 16.6138 29.7125 16.7104 29.6668L21.1611 27.5484C21.754 27.2662 22.1706 26.7857 22.3654 26.1585C22.5603 25.5315 22.4897 24.8994 22.1616 24.3311L21.5216 23.2228H30.1312C31.1616 23.2228 31.9998 22.3844 31.9998 21.3542L32 8.15935C32 7.12917 31.162 6.29097 30.1316 6.29097L30.1317 6.29099ZM12.4228 7.71923H28.9813L19.9785 13.8908L12.3957 8.69236C12.4727 8.37607 12.4837 8.04383 12.4229 7.71912L12.4228 7.71923ZM21.0019 25.7347C20.9253 25.9811 20.781 26.1477 20.5476 26.259L16.3376 28.2627C13.4705 27.3925 9.84843 23.7453 7.03216 18.8666C4.21208 13.9822 2.91955 9.17896 3.6158 6.22903L7.45656 3.58459C7.6693 3.43831 7.88569 3.39646 8.13724 3.45341C8.38924 3.51037 8.56636 3.6409 8.69558 3.86441L10.9219 7.72026C11.1549 8.12371 11.0207 8.64903 10.6227 8.89134L8.15668 10.3928C7.89886 10.5496 7.7679 10.8517 7.82874 11.147C8.53682 14.5794 11.5659 19.8261 14.1848 22.1553C14.4101 22.3557 14.7374 22.393 15.0019 22.2485L17.5352 20.8638C17.944 20.6405 18.4659 20.7868 18.6989 21.1902L20.9253 25.0461C21.0545 25.2696 21.0791 25.4884 21.0023 25.7352L21.0019 25.7347ZM30.1317 21.7943H20.697L19.9355 20.4754C19.3177 19.4055 17.9333 19.0172 16.8492 19.6096L14.7698 20.7461C12.5827 18.5876 10.1167 14.3166 9.34088 11.3429L11.3649 10.1106C11.4643 10.05 11.558 9.98266 11.6445 9.90952L19.5746 15.346C19.6963 15.4295 19.8376 15.4709 19.9783 15.4709C20.1192 15.4709 20.2605 15.4291 20.382 15.346L30.5711 8.36082V21.3541C30.5716 21.5925 30.3699 21.794 30.1315 21.794L30.1317 21.7943Z" fill="#BBBBBB"/>
</svg>
