<svg width="32" height="32" viewBox="0 0 32 32" fill="none" xmlns="http://www.w3.org/2000/svg">
<path d="M16.4839 28.9982V21.6515C16.3137 21.6669 16.1422 21.6773 15.9678 21.6773C15.7934 21.6773 15.622 21.6665 15.4517 21.6515V28.9982C14.8524 29.2118 14.4194 29.7795 14.4194 30.4517C14.4194 31.3054 15.1141 32.0001 15.9678 32.0001C16.8215 32.0001 17.5162 31.3054 17.5162 30.4517C17.5162 29.7793 17.0833 29.2116 16.4839 28.9978V28.9982Z" fill="#BBBBBB"/>
<path d="M15.4517 3.00186V10.3486C15.622 10.3331 15.7934 10.3228 15.9678 10.3228C16.1422 10.3228 16.3137 10.3336 16.4839 10.3486V3.00186C17.0832 2.78803 17.5162 2.22029 17.5162 1.54838C17.5162 0.694678 16.8215 0 15.9678 0C15.1141 0 14.4194 0.694678 14.4194 1.54838C14.4194 2.22029 14.8524 2.78803 15.4517 3.00186Z" fill="#BBBBBB"/>
<path d="M11.3223 16C11.3223 18.5615 13.4064 20.6452 15.9674 20.6452C18.5285 20.6452 20.6126 18.5615 20.6126 16C20.6126 13.439 18.5285 11.3549 15.9674 11.3549C13.4064 11.3549 11.3223 13.439 11.3223 16ZM17.5158 14.9678V15.4839H16.4835V14.9678C16.4835 14.6834 16.2517 14.4516 15.9674 14.4516H15.4513V14.9678C15.4513 15.2521 15.6831 15.4839 15.9674 15.4839C16.8211 15.4839 17.5158 16.1786 17.5158 17.0323V18.5806H16.4835V19.6129H15.4513V18.4857C14.852 18.2721 14.419 17.7044 14.419 17.0323V16.5161H15.4513V17.0323C15.4513 17.3171 15.6831 17.5484 15.9674 17.5484H16.4835V17.0323C16.4835 16.7475 16.2517 16.5161 15.9674 16.5161C15.1137 16.5161 14.419 15.8215 14.419 14.9678V13.4194H15.4513V12.3871H16.4835V13.5143C17.0828 13.7281 17.5158 14.2958 17.5158 14.9678Z" fill="#BBBBBB"/>
<path d="M27.8385 12.9031C26.1306 12.9031 24.7417 14.292 24.7417 15.9998C24.7417 17.7077 26.1306 19.0966 27.8385 19.0966C29.5463 19.0966 30.9352 17.7077 30.9352 15.9998C30.9352 14.292 29.5463 12.9031 27.8385 12.9031ZM27.8385 18.0644C26.7 18.0644 25.774 17.1383 25.774 15.9998C25.774 14.8614 26.7 13.9353 27.8385 13.9353C28.977 13.9353 29.903 14.8614 29.903 15.9998C29.903 17.1383 28.977 18.0644 27.8385 18.0644Z" fill="#BBBBBB"/>
<path d="M28.8707 15.9999C28.8707 16.57 28.4085 17.0322 27.8384 17.0322C27.2684 17.0322 26.8062 16.57 26.8062 15.9999C26.8062 15.4299 27.2684 14.9677 27.8384 14.9677C28.4085 14.9677 28.8707 15.4299 28.8707 15.9999Z" fill="#BBBBBB"/>
<path d="M7.19353 15.9998C7.19353 14.292 5.80459 12.9031 4.09677 12.9031C2.38894 12.9031 1 14.292 1 15.9998C1 17.7077 2.38894 19.0966 4.09677 19.0966C5.80459 19.0966 7.19353 17.7077 7.19353 15.9998ZM2.03226 15.9998C2.03226 14.8614 2.95828 13.9353 4.09677 13.9353C5.23525 13.9353 6.16128 14.8614 6.16128 15.9998C6.16128 17.1383 5.23525 18.0644 4.09677 18.0644C2.95828 18.0644 2.03226 17.1383 2.03226 15.9998Z" fill="#BBBBBB"/>
<path d="M5.12896 15.9999C5.12896 16.57 4.66675 17.0322 4.09671 17.0322C3.52666 17.0322 3.06445 16.57 3.06445 15.9999C3.06445 15.4299 3.52666 14.9677 4.09671 14.9677C4.66675 14.9677 5.12896 15.4299 5.12896 15.9999Z" fill="#BBBBBB"/>
<path d="M19.1675 25.2727L20.1781 29.2881C23.553 28.2197 26.4106 25.8867 28.1418 22.7872L24.2322 21.2817C23.0343 23.1553 21.2615 24.5525 19.1675 25.273L19.1675 25.2727Z" fill="#BBBBBB"/>
<path d="M12.7678 6.72733L11.7572 2.71191C8.38157 3.78033 5.5247 6.11328 3.79346 9.21276L7.70311 10.7183C8.90106 8.84428 10.6738 7.44755 12.7678 6.72703L12.7678 6.72733Z" fill="#BBBBBB"/>
<path d="M24.2322 10.7183L28.1418 9.21276C26.4107 6.11299 23.5529 3.78003 20.1781 2.71191L19.168 6.72733C21.262 7.44784 23.0348 8.84463 24.2322 10.7186L24.2322 10.7183Z" fill="#BBBBBB"/>
<path d="M7.70311 21.2816L3.79346 22.7867C5.52499 25.8865 8.38239 28.2194 11.7572 29.2881L12.7673 25.2723C10.6733 24.5522 8.90047 23.1554 7.70305 21.2815L7.70311 21.2816Z" fill="#BBBBBB"/>
<path d="M21.6191 15.4839C21.6346 15.6542 21.6449 15.8256 21.6449 16C21.6449 16.1744 21.6341 16.3459 21.6191 16.5161H23.7456C23.724 16.3468 23.7095 16.1749 23.7095 16C23.7095 15.8251 23.724 15.6532 23.7452 15.4839H21.6191Z" fill="#BBBBBB"/>
<path d="M8.18994 15.4839C8.21114 15.6532 8.22566 15.8251 8.22566 16C8.22566 16.1749 8.21114 16.3468 8.18994 16.5161H10.3164C10.301 16.3459 10.2906 16.1744 10.2906 16C10.2906 15.8256 10.3015 15.6542 10.3164 15.4839H8.18994Z" fill="#BBBBBB"/>
</svg>
