<svg width="32" height="32" viewBox="0 0 32 32" fill="none" xmlns="http://www.w3.org/2000/svg">
<path d="M11.8619 8.17236C10.9015 8.17236 9.98068 8.55383 9.30176 9.23291C8.62267 9.91177 8.24121 10.8326 8.24121 11.7931C8.24121 12.7535 8.62267 13.6743 9.30176 14.3532C9.98062 15.0323 10.9015 15.4137 11.8619 15.4137C12.8223 15.4137 13.7431 15.0323 14.422 14.3532C15.1011 13.6743 15.4826 12.7535 15.4826 11.7931C15.4814 10.8332 15.0997 9.91272 14.4209 9.2341C13.7422 8.55524 12.8218 8.17355 11.8619 8.17236V8.17236ZM11.8619 14.3793C11.1761 14.3793 10.5183 14.1068 10.0331 13.6219C9.54814 13.1368 9.27569 12.4789 9.27569 11.7931C9.27569 11.1072 9.54817 10.4494 10.0331 9.96421C10.5182 9.47929 11.1761 9.20685 11.8619 9.20685C12.5477 9.20685 13.2055 9.47932 13.6907 9.96421C14.1757 10.4493 14.4481 11.1072 14.4481 11.7931C14.4472 12.4786 14.1745 13.136 13.6898 13.621C13.2049 14.1056 12.5475 14.3783 11.8619 14.3793Z" fill="#BBBBBB"/>
<path d="M12.5511 12.5646C12.359 12.729 12.1144 12.8196 11.8616 12.8196C11.6087 12.8196 11.3642 12.729 11.1721 12.5646C10.959 12.3774 10.6345 12.3968 10.4454 12.608C10.2561 12.8196 10.2725 13.144 10.4821 13.3352C10.8615 13.6746 11.3527 13.8624 11.8616 13.8624C12.3705 13.8624 12.8617 13.6746 13.2411 13.3352C13.3447 13.2442 13.4078 13.1154 13.4159 12.9777C13.4242 12.8399 13.3771 12.7046 13.2849 12.6018C13.193 12.4988 13.0637 12.4372 12.9259 12.4303C12.788 12.4231 12.6529 12.4716 12.5511 12.5646L12.5511 12.5646Z" fill="#BBBBBB"/>
<path d="M28.931 3H26.862C26.5877 3 26.3244 3.10899 26.1305 3.30296C25.9365 3.49692 25.8275 3.76016 25.8275 4.03448V6.10345H3.21905C2.65078 6.08498 2.09821 6.2921 1.68234 6.6798C1.26647 7.0675 1.02122 7.60416 1 8.17241V27.8276C1 28.3762 1.21798 28.9025 1.60591 29.2906C1.99407 29.6786 2.52034 29.8966 3.06897 29.8966H5.13793C5.41225 29.8966 5.6755 29.7876 5.86946 29.5936C6.06342 29.3996 6.17241 29.1364 6.17241 28.8621V26.7931H28.931C29.4797 26.7931 30.006 26.5751 30.3941 26.1872C30.782 25.799 31 25.2728 31 24.7241V5.06897C31 4.52032 30.782 3.99405 30.3941 3.60591C30.0059 3.21798 29.4797 3 28.931 3H28.931ZM26.862 4.03448H28.931C29.3007 4.03448 29.6422 4.23168 29.8269 4.55172C30.0116 4.87177 30.0116 5.26617 29.8269 5.58621C29.6422 5.90625 29.3007 6.10345 28.931 6.10345H26.862V4.03448ZM3.06891 28.8621C2.79459 28.8621 2.53134 28.7531 2.33738 28.5591C2.14342 28.3651 2.03442 28.1019 2.03442 27.8276V9.96355C2.34869 10.146 2.70566 10.2418 3.06891 10.2413V12.3103C3.06891 12.5959 3.30051 12.8275 3.58615 12.8275C3.87178 12.8275 4.10339 12.5959 4.10339 12.3103V10.2413H5.13787V28.862L3.06891 28.8621ZM29.9655 24.7241C29.9655 24.9985 29.8565 25.2617 29.6625 25.4557C29.4685 25.6496 29.2053 25.7586 28.931 25.7586H6.17236V10.2414C6.17236 9.96706 6.06336 9.70381 5.8694 9.50985C5.67544 9.31589 5.41219 9.2069 5.13787 9.2069H3.219C2.92504 9.22514 2.63594 9.12677 2.41405 8.93304C2.19237 8.7393 2.05591 8.46614 2.03443 8.17243C2.0559 7.8787 2.19237 7.60554 2.41405 7.41181C2.63595 7.21808 2.92505 7.11971 3.219 7.13795H28.9309C29.0556 7.1368 29.1798 7.1241 29.3022 7.10009C29.3318 7.09501 29.3606 7.08923 29.389 7.08254H29.3893C29.5066 7.05714 29.6216 7.02158 29.7326 6.97608L29.746 6.96939C29.8213 6.93752 29.8945 6.90104 29.9654 6.86016L29.9655 24.7241Z" fill="#BBBBBB"/>
<path d="M11.3452 10.7587C11.3452 11.0457 11.1125 11.2785 10.8254 11.2785C10.5382 11.2785 10.3057 11.0457 10.3057 10.7587C10.3057 10.4717 10.5382 10.2389 10.8254 10.2389C11.1125 10.2389 11.3452 10.4717 11.3452 10.7587Z" fill="#BBBBBB"/>
<path d="M13.419 10.7587C13.419 11.0457 13.1864 11.2785 12.8992 11.2785C12.6122 11.2785 12.3794 11.0457 12.3794 10.7587C12.3794 10.4717 12.6122 10.2389 12.8992 10.2389C13.1864 10.2389 13.419 10.4717 13.419 10.7587Z" fill="#BBBBBB"/>
<path d="M11.8619 17.4827C10.9015 17.4827 9.98068 17.8641 9.30176 18.5432C8.62267 19.2221 8.24121 20.1429 8.24121 21.1034C8.24121 22.0638 8.62267 22.9846 9.30176 23.6635C9.98062 24.3426 10.9015 24.724 11.8619 24.724C12.8223 24.724 13.7431 24.3426 14.422 23.6635C15.1011 22.9846 15.4826 22.0638 15.4826 21.1034C15.4814 20.1435 15.0997 19.223 14.4209 18.5444C13.7422 17.8655 12.8218 17.4838 11.8619 17.4827V17.4827ZM11.8619 23.6896C11.1761 23.6896 10.5183 23.4171 10.0331 22.9322C9.54814 22.4471 9.27569 21.7892 9.27569 21.1034C9.27569 20.4175 9.54817 19.7597 10.0331 19.2745C10.5182 18.7896 11.1761 18.5171 11.8619 18.5171C12.5477 18.5171 13.2055 18.7896 13.6907 19.2745C14.1757 19.7597 14.4481 20.4175 14.4481 21.1034C14.4472 21.789 14.1745 22.4464 13.6898 22.9313C13.2049 23.4159 12.5475 23.6886 11.8619 23.6896Z" fill="#BBBBBB"/>
<path d="M10.4824 21.7525C10.3787 21.8438 10.3157 21.9724 10.3076 22.1102C10.2993 22.2481 10.3464 22.3834 10.4385 22.4861C10.5304 22.5889 10.6597 22.6508 10.7976 22.6577C10.9354 22.6646 11.0705 22.6164 11.1723 22.5233C11.3645 22.3587 11.609 22.2684 11.8618 22.2684C12.1147 22.2684 12.3592 22.3587 12.5513 22.5233C12.7645 22.7106 13.0889 22.6912 13.278 22.4797C13.4674 22.2684 13.451 21.9437 13.2413 21.7525C12.8571 21.4235 12.3678 21.2427 11.8618 21.2427C11.3559 21.2427 10.8666 21.4235 10.4824 21.7525L10.4824 21.7525Z" fill="#BBBBBB"/>
<path d="M11.3452 20.0689C11.3452 20.3559 11.1125 20.5886 10.8254 20.5886C10.5382 20.5886 10.3057 20.3559 10.3057 20.0689C10.3057 19.7818 10.5382 19.5491 10.8254 19.5491C11.1125 19.5491 11.3452 19.7818 11.3452 20.0689Z" fill="#BBBBBB"/>
<path d="M13.419 20.0689C13.419 20.3559 13.1864 20.5886 12.8992 20.5886C12.6122 20.5886 12.3794 20.3559 12.3794 20.0689C12.3794 19.7818 12.6122 19.5491 12.8992 19.5491C13.1864 19.5491 13.419 19.7818 13.419 20.0689Z" fill="#BBBBBB"/>
<path d="M17.0343 11.2759H21.1723C21.4579 11.2759 21.6895 11.0443 21.6895 10.7587C21.6895 10.4731 21.4579 10.2415 21.1723 10.2415H17.0343C16.7487 10.2415 16.5171 10.4731 16.5171 10.7587C16.5171 11.0443 16.7487 11.2759 17.0343 11.2759Z" fill="#BBBBBB"/>
<path d="M27.3792 12.3103H17.0343C16.7487 12.3103 16.5171 12.5419 16.5171 12.8275C16.5171 13.1132 16.7487 13.3448 17.0343 13.3448H27.3792C27.6648 13.3448 27.8964 13.1132 27.8964 12.8275C27.8964 12.5419 27.6648 12.3103 27.3792 12.3103Z" fill="#BBBBBB"/>
<path d="M17.0343 20.5862H21.1723C21.4579 20.5862 21.6895 20.3546 21.6895 20.069C21.6895 19.7834 21.4579 19.5518 21.1723 19.5518H17.0343C16.7487 19.5518 16.5171 19.7834 16.5171 20.069C16.5171 20.3546 16.7487 20.5862 17.0343 20.5862Z" fill="#BBBBBB"/>
<path d="M27.3792 21.6207H17.0343C16.7487 21.6207 16.5171 21.8523 16.5171 22.138C16.5171 22.4236 16.7487 22.6552 17.0343 22.6552H27.3792C27.6648 22.6552 27.8964 22.4236 27.8964 22.138C27.8964 21.8523 27.6648 21.6207 27.3792 21.6207Z" fill="#BBBBBB"/>
</svg>
