<svg width="17" height="13" viewBox="0 0 17 13" fill="none" xmlns="http://www.w3.org/2000/svg">
<path fill-rule="evenodd" clip-rule="evenodd" d="M9.77282 1.14532C9.77282 0.969216 9.83992 0.800326 9.95937 0.675803C10.0788 0.55128 10.2408 0.481323 10.4097 0.481323H15.5052C15.6741 0.481323 15.8361 0.55128 15.9555 0.675803C16.075 0.800326 16.1421 0.969216 16.1421 1.14532V6.45727C16.1421 6.63338 16.075 6.80227 15.9555 6.92679C15.8361 7.05131 15.6741 7.12127 15.5052 7.12127C15.3362 7.12127 15.1742 7.05131 15.0548 6.92679C14.9353 6.80227 14.8682 6.63338 14.8682 6.45727V3.0045L10.2658 8.87023C10.2095 8.94192 10.1393 9.00053 10.06 9.04227C9.98059 9.08401 9.89371 9.10796 9.80492 9.11259C9.71613 9.11722 9.62739 9.10242 9.54442 9.06914C9.46144 9.03586 9.38607 8.98484 9.32315 8.91937L6.02769 5.48386L1.37049 12.1597C1.26861 12.2947 1.12048 12.3833 0.957233 12.4069C0.793983 12.4305 0.628323 12.3872 0.495065 12.2861C0.361807 12.185 0.271326 12.034 0.242637 11.8648C0.213948 11.6956 0.249284 11.5214 0.34122 11.3788L5.43663 4.07486C5.49071 3.99719 5.5603 3.93267 5.64061 3.88574C5.72091 3.83881 5.81002 3.81058 5.9018 3.80301C5.99358 3.79544 6.08584 3.8087 6.17222 3.84187C6.25861 3.87505 6.33708 3.92735 6.40221 3.99518L9.72569 7.46123L14.1612 1.80931H10.4097C10.2408 1.80931 10.0788 1.73936 9.95937 1.61483C9.83992 1.49031 9.77282 1.32142 9.77282 1.14532Z" fill="#4FD18B"/>
</svg>
