<svg width="32" height="32" viewBox="0 0 32 32" fill="none" xmlns="http://www.w3.org/2000/svg">
<g clip-path="url(#clip0_619_6894)">
<path d="M24.605 12.8843C24.605 12.8492 24.6057 12.8138 24.6064 12.7787C24.6074 12.7389 24.6081 12.6994 24.6081 12.6594C24.6081 7.72122 20.5911 3.70398 15.6539 3.70398C10.718 3.70398 6.70264 7.7214 6.70264 12.6594C6.70264 12.7382 6.70264 12.8173 6.70496 12.892C6.7687 16.1408 8.15838 17.9881 9.50205 19.7744C10.774 21.4655 11.9755 23.0628 11.9758 25.8016V25.8026V29.5497C11.9758 29.7656 12.1507 29.9405 12.3666 29.9405H12.6836C12.9142 31.1064 14.1583 31.9999 15.654 31.9999C17.151 31.9999 18.396 31.1064 18.6265 29.9405H18.9436C19.1594 29.9405 19.3344 29.7656 19.3344 29.5497V25.8026C19.3344 23.0634 20.5359 21.466 21.8081 19.7747C23.1519 17.9882 24.5416 16.1409 24.6052 12.8917C24.6054 12.8894 24.6054 12.8869 24.6054 12.8843L24.605 12.8843ZM18.5528 27.2839H12.7575V26.1936H18.5528V27.2839ZM18.5528 29.1591H12.7577V28.0656H18.553L18.5528 29.1591ZM15.6541 31.2188C14.6054 31.2188 13.7237 30.673 13.4883 29.941H17.8221C17.5862 30.673 16.7037 31.2188 15.6541 31.2188ZM23.8252 12.7625C23.8242 12.8018 23.8235 12.8411 23.8235 12.8804C23.764 15.8743 22.5104 17.5408 21.1835 19.3049C19.9473 20.9484 18.6707 22.6451 18.5604 25.4119H12.7497C12.6392 22.6451 11.363 20.9483 10.1266 19.3049C8.79903 17.5399 7.54517 15.873 7.48609 12.8727C7.484 12.8017 7.484 12.7308 7.484 12.6596C7.484 8.15248 11.149 4.48552 15.6539 4.48552C20.1603 4.48552 23.8268 8.15236 23.8268 12.659C23.827 12.6934 23.8261 12.7279 23.8254 12.7623L23.8252 12.7625Z" fill="#BBBBBB" stroke="#BBBBBB" stroke-width="0.3"/>
<path d="M15.6569 2.99111C15.8728 2.99111 16.0477 2.81617 16.0477 2.6003V0.390809C16.0477 0.174933 15.8728 0 15.6569 0C15.441 0 15.2661 0.174933 15.2661 0.390809V2.6003C15.2661 2.81617 15.4413 2.99111 15.6569 2.99111Z" fill="#BBBBBB" stroke="#BBBBBB" stroke-width="0.3"/>
<path d="M10.2908 4.14317C10.3632 4.26856 10.4946 4.33857 10.6295 4.33857C10.6958 4.33857 10.7631 4.32159 10.8247 4.286C11.0115 4.17806 11.0757 3.93893 10.9675 3.75213L9.86256 1.8395C9.75463 1.65248 9.51549 1.58874 9.32869 1.69668C9.1419 1.80461 9.07769 2.04375 9.18586 2.23055L10.2908 4.14317Z" fill="#BBBBBB" stroke="#BBBBBB" stroke-width="0.3"/>
<path d="M4.83884 6.8619L6.75057 7.96664C6.81222 8.00224 6.87945 8.01922 6.94574 8.01922C7.08066 8.01922 7.2121 7.9492 7.28444 7.82382C7.39238 7.63702 7.32841 7.39788 7.14162 7.28995L5.22988 6.1852C5.04309 6.07726 4.80395 6.141 4.69601 6.32803C4.58808 6.51483 4.65205 6.75396 4.83884 6.8619V6.8619Z" fill="#BBBBBB" stroke="#BBBBBB" stroke-width="0.3"/>
<path d="M5.98992 12.6599C5.98992 12.444 5.81498 12.269 5.59911 12.269H3.39081C3.17493 12.269 3 12.444 3 12.6599C3 12.8757 3.17493 13.0507 3.39081 13.0507H5.59911C5.81498 13.0507 5.98992 12.8755 5.98992 12.6599Z" fill="#BBBBBB" stroke="#BBBBBB" stroke-width="0.3"/>
<path d="M6.7505 17.3525L4.83877 18.4577C4.65198 18.5657 4.58801 18.8048 4.69618 18.9916C4.76852 19.1167 4.89996 19.1868 5.03488 19.1868C5.10118 19.1868 5.16864 19.1698 5.23005 19.1342L7.14178 18.029C7.32857 17.921 7.39254 17.6819 7.28437 17.4951C7.17644 17.3085 6.9373 17.2443 6.7505 17.3525V17.3525Z" fill="#BBBBBB" stroke="#BBBBBB" stroke-width="0.3"/>
<path d="M20.4909 4.28636C20.5523 4.32172 20.6193 4.33847 20.6853 4.33847C20.8205 4.33847 20.9522 4.26822 21.0245 4.1426L22.1255 2.22997C22.2332 2.04295 22.1688 1.80404 21.9817 1.69634C21.7947 1.58863 21.5558 1.65307 21.4481 1.8401L20.3471 3.75249C20.2394 3.93975 20.3038 4.17865 20.4909 4.28636V4.28636Z" fill="#BBBBBB" stroke="#BBBBBB" stroke-width="0.3"/>
<path d="M24.3654 8.02275C24.4317 8.02275 24.4992 8.00577 24.5606 7.97017L26.4723 6.86495C26.6591 6.75702 26.7231 6.51788 26.6149 6.33108C26.507 6.14429 26.2681 6.08032 26.0811 6.18849L24.1693 7.29371C23.9825 7.40165 23.9186 7.64078 24.0267 7.82758C24.0991 7.95273 24.2305 8.02275 24.3654 8.02275Z" fill="#BBBBBB" stroke="#BBBBBB" stroke-width="0.3"/>
<path d="M27.9199 12.2717H25.7116C25.4957 12.2717 25.3208 12.4467 25.3208 12.6625C25.3208 12.8784 25.4957 13.0533 25.7116 13.0533H27.9199C28.1358 13.0533 28.3107 12.8784 28.3107 12.6625C28.3107 12.4467 28.1356 12.2717 27.9199 12.2717Z" fill="#BBBBBB" stroke="#BBBBBB" stroke-width="0.3"/>
<path d="M26.4688 18.4578L24.5571 17.3525C24.3701 17.2444 24.1312 17.3084 24.0232 17.4951C23.9153 17.6819 23.979 17.9211 24.1658 18.029L26.0776 19.1342C26.1392 19.1698 26.2064 19.1868 26.2727 19.1868C26.4076 19.1868 26.5391 19.1168 26.6114 18.9916C26.7196 18.8046 26.6559 18.5657 26.4688 18.4578Z" fill="#BBBBBB" stroke="#BBBBBB" stroke-width="0.3"/>
</g>
<defs>
<clipPath id="clip0_619_6894">
<rect width="32" height="32" fill="white"/>
</clipPath>
</defs>
</svg>
