<svg width="32" height="32" viewBox="0 0 32 32" fill="none" xmlns="http://www.w3.org/2000/svg">
<path d="M15.18 14.6096L13.6577 14.256V6.20716C15.9351 6.51881 17.3435 7.94518 17.5833 9.69519C17.6132 9.93492 17.817 10.1087 18.0567 10.1087H20.7477C21.0293 10.1087 21.2511 9.863 21.2271 9.58132C20.8615 5.84757 17.787 3.45029 13.6817 3.03676V1.07699C13.6817 0.813289 13.4659 0.597534 13.2022 0.597534H11.5182C11.2545 0.597534 11.0387 0.813289 11.0387 1.07699V3.05474C6.79552 3.46827 3.47529 5.81161 3.47529 10.1866C3.47529 14.238 6.4599 16.1918 9.59434 16.941L11.0747 17.3185V25.8708C8.42567 25.5172 6.93936 24.1028 6.6337 22.197C6.59774 21.9692 6.39398 21.8014 6.16024 21.8014H3.39139C3.10971 21.8014 2.88796 22.0412 2.91193 22.3228C3.18163 25.6191 5.68079 28.6516 11.0147 29.0412V30.9231C11.0147 31.1868 11.2305 31.4025 11.4942 31.4025H13.1962C13.4599 31.4025 13.6757 31.1868 13.6757 30.9171L13.6637 29.0172C18.3564 28.6037 21.7126 26.0926 21.7126 21.5857C21.7066 17.4264 19.0636 15.5685 15.18 14.6096ZM11.0687 13.6387C10.733 13.5428 10.4514 13.4529 10.1697 13.3391C8.14399 12.6079 7.20306 11.4272 7.20306 9.90496C7.20306 7.72943 8.85118 6.48884 11.0687 6.20716V13.6387ZM13.6577 25.8888V17.8759C13.8435 17.9298 14.0113 17.9718 14.1851 18.0077C17.0199 18.8708 17.9728 20.0694 17.9728 21.9093C17.9728 24.2526 16.2108 25.661 13.6577 25.8888Z" fill="#BBBBBB"/>
<path d="M28.0185 20.5205C28.0155 20.4027 27.9615 20.2561 27.7989 20.1564C27.7114 20.1026 27.5754 20.0501 27.2561 19.9885L27.2561 19.9885L27.7686 20.5268M28.0185 20.5205L27.7686 20.5268M28.0185 20.5205C28.0185 20.5199 28.0185 20.5194 28.0184 20.5188L27.7686 20.5268M28.0185 20.5205C28.0243 20.7252 27.8911 20.8632 27.7548 20.9423L27.7544 20.9426C27.6412 21.008 27.4648 21.0666 27.2663 21.1205C27.0601 21.1765 26.8051 21.2338 26.5183 21.2902C25.9441 21.4032 25.2313 21.5152 24.5038 21.6087C23.7761 21.7022 23.0303 21.7777 22.3901 21.8172C21.8605 21.8498 21.386 21.8591 21.0529 21.8285C21.0807 21.7799 21.1083 21.7312 21.1358 21.6825L20.9181 21.5597C22.1044 21.7606 26.9716 21.1062 27.6293 20.7261C27.7241 20.6711 27.771 20.604 27.7686 20.5268M25.0587 8.30807C25.0754 8.1553 24.9648 8.01856 24.8117 8.00166L28.362 11.4635C27.0954 11.4952 25.5293 12.0795 24.5797 12.5865C24.6043 12.4792 24.6282 12.3729 24.6515 12.2678M25.0587 8.30807C24.9599 9.22328 24.7571 10.6739 24.3611 12.4208C24.4518 12.3706 24.5489 12.3194 24.6515 12.2678M25.0587 8.30807L25.3072 8.3349C25.3072 8.335 25.3072 8.3351 25.3072 8.33521C25.2115 9.2216 25.0194 10.6032 24.6515 12.2678M25.0587 8.30807L24.6515 12.2678M24.2568 8.22202C24.2568 8.22193 24.2568 8.22184 24.2568 8.22175L24.5053 8.24859L24.2568 8.22202ZM24.2568 8.22202C24.1688 9.03668 23.9969 10.2881 23.6735 11.7989M12.1324 30.2327C12.2148 30.2832 12.3214 30.2893 12.4122 30.2396L15.9509 18.4571C15.9339 19.2333 17.7859 23.4253 18.4725 24.2554C17.9138 24.9809 17.3047 25.6834 16.6397 26.3513C16.6325 26.2436 16.6227 26.1346 16.6105 26.0248C16.535 26.1021 16.4588 26.1791 16.3818 26.2556C16.1952 24.0094 14.888 21.2353 14.3953 20.9329C14.3057 20.8779 14.2345 20.8887 14.1903 20.9072C14.0666 20.9597 14.0555 21.1092 14.0518 21.159L14.0518 21.1591C13.9907 21.9772 15.2842 25.9826 15.9002 27.0561C14.7927 28.0638 13.5501 28.9794 12.1443 29.7512C12.0094 29.8253 11.9606 29.9943 12.0344 30.1295C12.0582 30.1734 12.0923 30.2081 12.1324 30.2327Z" fill="white" stroke="#BBBBBB" stroke-width="0.5"/>
</svg>
