<svg width="32" height="32" viewBox="0 0 32 32" fill="none" xmlns="http://www.w3.org/2000/svg">
<path fill-rule="evenodd" clip-rule="evenodd" d="M1.24644 15.2459C1.20386 15.4286 1.24754 15.6206 1.36403 15.7679C1.48107 15.9143 1.65827 15.9998 1.84591 15.9998H3.69212V30.154C3.69212 30.4936 3.96796 30.7694 4.30753 30.7694H27.6928C28.0324 30.7694 28.3082 30.4936 28.3082 30.154V15.9998H30.1544C30.3421 15.9998 30.5193 15.9143 30.6363 15.7679C30.7525 15.6209 30.7962 15.4289 30.7539 15.2459L28.9077 7.24564C28.8646 7.05855 28.736 6.90168 28.5607 6.82283L16.2527 1.28421C16.0919 1.21223 15.9087 1.21223 15.748 1.28421L3.43992 6.82283C3.26464 6.90168 3.13579 7.05855 3.09293 7.24564L1.24672 15.2459H1.24644ZM2.61932 14.7689L4.22295 7.81982L16 2.52046L27.777 7.81982L29.3807 14.7689H27.6927C27.3532 14.7689 27.0773 15.0448 27.0773 15.3843V29.5386H4.92282V15.3843C4.92282 15.0448 4.64699 14.7689 4.30742 14.7689H2.61932Z" fill="#BBBBBB"/>
<path fill-rule="evenodd" clip-rule="evenodd" d="M23.3854 17.8461C23.3854 17.5065 23.1096 17.2307 22.77 17.2307H9.23113C8.89156 17.2307 8.61572 17.5065 8.61572 17.8461V30.1542C8.61572 30.4937 8.89156 30.7696 9.23113 30.7696H22.77C23.1096 30.7696 23.3854 30.4937 23.3854 30.1542V17.8461ZM22.1546 18.4615V29.5388H9.84653V18.4615H22.1546Z" fill="#BBBBBB"/>
<path fill-rule="evenodd" clip-rule="evenodd" d="M8.8168 18.3017L22.3557 30.6097C22.6073 30.838 22.9969 30.8196 23.2252 30.5685C23.4535 30.3169 23.4351 29.9273 23.184 29.699L9.6451 17.3909C9.39345 17.1626 9.00387 17.1811 8.77559 17.4322C8.54729 17.6838 8.56569 18.0734 8.8168 18.3017Z" fill="#BBBBBB"/>
<path fill-rule="evenodd" clip-rule="evenodd" d="M22.3557 17.3902L8.8168 29.6983C8.56569 29.9266 8.54729 30.3161 8.77559 30.5678C9.00389 30.8189 9.39347 30.8373 9.6451 30.609L23.184 18.3009C23.4351 18.0726 23.4535 17.6831 23.2252 17.4314C22.9969 17.1803 22.6073 17.1619 22.3557 17.3902Z" fill="#BBBBBB"/>
<path fill-rule="evenodd" clip-rule="evenodd" d="M19.6924 9.23051C19.6924 8.89095 19.4166 8.61511 19.077 8.61511H12.923C12.5835 8.61511 12.3076 8.89095 12.3076 9.23051V12.3075C12.3076 12.6471 12.5835 12.9229 12.923 12.9229H19.077C19.4166 12.9229 19.6924 12.6471 19.6924 12.3075V9.23051ZM18.4616 9.84592V11.6921H13.5384V9.84592H18.4616Z" fill="#BBBBBB"/>
<path fill-rule="evenodd" clip-rule="evenodd" d="M1.84587 30.7694H30.1544C30.494 30.7694 30.7698 30.4935 30.7698 30.154C30.7698 29.8144 30.494 29.5386 30.1544 29.5386H1.84587C1.5063 29.5386 1.23047 29.8144 1.23047 30.154C1.23047 30.4935 1.5063 30.7694 1.84587 30.7694Z" fill="#BBBBBB"/>
<path fill-rule="evenodd" clip-rule="evenodd" d="M4.90669 15.5272L6.37515 9.35835L16.0007 4.98294L25.6263 9.35835L27.0948 15.5272C27.1736 15.8577 27.5058 16.0621 27.8363 15.9833C28.1668 15.9044 28.3712 15.5723 28.2924 15.2418L26.7539 8.78004C26.7096 8.59542 26.5827 8.44102 26.4099 8.36272L16.2554 3.7472C16.0936 3.6733 15.9076 3.6733 15.7458 3.7472L5.59128 8.36272C5.41847 8.44075 5.29154 8.59542 5.24731 8.78004L3.70881 15.2418C3.62996 15.5723 3.83436 15.9044 4.16487 15.9833C4.49537 16.0621 4.82752 15.8577 4.90637 15.5272H4.90669Z" fill="#BBBBBB"/>
</svg>
