<svg width="33" height="33" viewBox="0 0 33 33" fill="none" xmlns="http://www.w3.org/2000/svg">
<path d="M16.8331 23.7947L24.5009 27.8259L23.0365 19.2877L29.2399 13.241L20.6676 11.9953L16.8337 4.22699L12.9998 11.9953L4.42753 13.241L10.6309 19.2877L9.16652 27.8259L16.8331 23.7947ZM10.1398 29.6791C9.11633 30.2172 7.85047 29.8237 7.31232 28.8C7.09804 28.3925 7.0242 27.9259 7.10202 27.4718L8.3802 20.0188L2.96524 14.7406C2.13733 13.9335 2.12028 12.6079 2.92739 11.7799C3.24892 11.4502 3.67 11.2355 4.12565 11.1694L11.6086 10.0821L14.9553 3.30079C15.467 2.26398 16.7226 1.83824 17.7594 2.34994C18.1723 2.55371 18.5066 2.88786 18.7104 3.30079L22.0571 10.0821L29.54 11.1694C30.6843 11.3357 31.4772 12.398 31.311 13.5423C31.2446 13.998 31.0301 14.4193 30.7004 14.7406L25.2854 20.0188L26.5636 27.4718C26.7592 28.6117 25.9937 29.6941 24.8541 29.8894C24.4003 29.9672 23.9334 29.8934 23.5259 29.6791L16.8326 26.1602L10.1398 29.6791Z" fill="#BBBBBB"/>
</svg>
